<svg viewBox="0 0 256 64" xmlns="http://www.w3.org/2000/svg" xml:space="preserve" style="fill-rule:evenodd;clip-rule:evenodd;stroke-linejoin:round;stroke-miterlimit:2"><path d="m45.714 17.777-3.466 5.637c-2.511-2.267-4.674-2.418-5.63-2.418-1.056 0-2.364.151-3.27 1.159a3 3 0 0 0-.856 2.115c0 .805.252 1.41.755 1.863.805.755 1.962 1.058 4.227 1.914l2.514.957c1.456.554 3.264 1.309 4.57 2.568 1.958 1.863 2.461 4.281 2.461 6.245 0 3.475-1.205 6.494-2.963 8.305-2.964 3.119-7.287 3.42-9.5 3.42-2.416 0-4.525-.352-6.634-1.408-1.708-.855-3.666-2.414-4.924-3.672l4.02-5.537c.854.856 2.21 2.014 3.114 2.568 1.305.806 2.663 1.209 4.222 1.209 1.007 0 2.415-.202 3.522-1.159.654-.554 1.207-1.46 1.207-2.719 0-1.108-.452-1.813-1.156-2.417-.906-.756-2.969-1.511-3.925-1.864l-2.765-.957c-1.557-.554-3.365-1.259-4.672-2.669-1.757-1.863-2.008-4.23-2.008-5.842 0-2.971.904-5.487 2.913-7.549 2.361-2.415 5.173-3.068 8.292-3.068 2.315 0 6.034.402 9.952 3.319Zm23.221-2.564v6.538H57.726v6.501h10.656v6.539H57.726v7.457h11.209v6.539H49.991V15.213h18.944Zm24.43 2.564L89.9 23.414c-2.512-2.267-4.674-2.418-5.63-2.418-1.057 0-2.365.151-3.27 1.159a3 3 0 0 0-.856 2.115c0 .805.252 1.41.755 1.863.805.755 1.962 1.058 4.227 1.914l2.513.957c1.457.554 3.265 1.309 4.571 2.568 1.958 1.863 2.461 4.281 2.461 6.245 0 3.475-1.206 6.494-2.963 8.305-2.964 3.119-7.287 3.42-9.501 3.42-2.415 0-4.524-.352-6.633-1.408-1.708-.855-3.667-2.414-4.924-3.672l4.02-5.537c.854.856 2.209 2.014 3.114 2.568 1.305.806 2.662 1.209 4.222 1.209 1.006 0 2.415-.202 3.522-1.159.654-.554 1.207-1.46 1.207-2.719 0-1.108-.453-1.813-1.157-2.417-.905-.756-2.968-1.511-3.924-1.864l-2.765-.957c-1.557-.554-3.365-1.259-4.672-2.669-1.757-1.863-2.008-4.23-2.008-5.842 0-2.971.903-5.487 2.913-7.549 2.36-2.415 5.173-3.068 8.292-3.068 2.315 0 6.033.402 9.951 3.319Zm25.033 0-3.466 5.637c-2.511-2.267-4.673-2.418-5.63-2.418-1.056 0-2.364.151-3.27 1.159a3 3 0 0 0-.856 2.115c0 .805.252 1.41.755 1.863.805.755 1.962 1.058 4.227 1.914l2.514.957c1.456.554 3.264 1.309 4.57 2.568 1.958 1.863 2.461 4.281 2.461 6.245 0 3.475-1.206 6.494-2.963 8.305-2.963 3.119-7.287 3.42-9.501 3.42-2.415 0-4.524-.352-6.633-1.408-1.708-.855-3.666-2.414-4.924-3.672l4.02-5.537c.854.856 2.21 2.014 3.114 2.568 1.305.806 2.663 1.209 4.222 1.209 1.007 0 2.415-.202 3.522-1.159.654-.554 1.207-1.46 1.207-2.719 0-1.108-.452-1.813-1.156-2.417-.906-.756-2.969-1.511-3.925-1.864l-2.765-.957c-1.557-.554-3.365-1.259-4.672-2.669-1.757-1.863-2.008-4.23-2.008-5.842 0-2.971.903-5.487 2.913-7.549 2.361-2.415 5.173-3.068 8.292-3.068 2.315 0 6.034.402 9.952 3.319Zm4.428-2.564h7.735v33.574h-7.735V15.213Zm29.352-.755c5.229 0 9.604 1.609 12.97 4.879 3.163 3.069 5.223 7.501 5.223 12.688 0 4.482-1.607 9.065-5.223 12.588-3.115 3.018-7.338 4.929-12.97 4.929-6.285 0-10.559-2.515-13.071-4.929-3.214-3.019-5.223-7.552-5.223-12.487 0-4.835 2.16-9.72 5.174-12.739 2.259-2.263 6.432-4.929 13.12-4.929Zm-.051 7.142c-2.916 0-5.53 1.058-7.34 2.871-1.459 1.41-2.967 3.878-2.967 7.605 0 3.072 1.005 5.539 3.067 7.554 2.162 2.065 4.575 2.77 7.19 2.77 3.42 0 5.833-1.259 7.442-2.871 1.307-1.259 2.916-3.626 2.916-7.504 0-3.475-1.408-6.043-2.916-7.554-1.659-1.612-4.324-2.871-7.392-2.871Zm29.151 27.187h-7.734V15.213h6.73l18.201 21.644V15.213h7.736v33.574h-6.731l-18.202-21.745v21.745Zm50.418-31.01-3.466 5.637c-2.51-2.267-4.673-2.418-5.629-2.418-1.057 0-2.365.151-3.271 1.159a3.004 3.004 0 0 0-.855 2.115c0 .805.252 1.41.755 1.863.805.755 1.962 1.058 4.226 1.914l2.514.957c1.457.554 3.265 1.309 4.571 2.568 1.958 1.863 2.461 4.281 2.461 6.245 0 3.475-1.206 6.494-2.963 8.305-2.964 3.119-7.287 3.42-9.501 3.42-2.415 0-4.524-.352-6.633-1.408-1.708-.855-3.667-2.414-4.924-3.672L213 38.925c.855.856 2.21 2.014 3.115 2.568 1.305.806 2.662 1.209 4.221 1.209 1.007 0 2.416-.202 3.523-1.159.654-.554 1.207-1.46 1.207-2.719 0-1.108-.452-1.813-1.157-2.417-.906-.756-2.968-1.511-3.925-1.864l-2.764-.957c-1.557-.554-3.365-1.259-4.672-2.669-1.758-1.863-2.008-4.23-2.008-5.842 0-2.971.903-5.487 2.913-7.549 2.361-2.415 5.173-3.068 8.292-3.068 2.315 0 6.033.402 9.951 3.319Z" style="fill:none;stroke:#444;stroke-width:0.75px"/></svg>